<?xml version="1.0" standalone="no"?>
<!DOCTYPE svg PUBLIC "-//W3C//DTD SVG 20010904//EN"
 "http://www.w3.org/TR/2001/REC-SVG-20010904/DTD/svg10.dtd">
<svg version="1.0" xmlns="http://www.w3.org/2000/svg"
 width="1042.000000pt" height="1042.000000pt" viewBox="0 0 1042.000000 1042.000000"
 preserveAspectRatio="xMidYMid meet">
<metadata>
Created by potrace 1.14, written by Peter Selinger 2001-2017
</metadata>
<g transform="translate(0.000000,1042.000000) scale(0.100000,-0.100000)"
fill="#000000" stroke="none">
<path d="M5040 7580 l0 -2550 2545 0 2545 0 0 2550 0 2550 -2545 0 -2545 0 0
-2550z"/>
<path d="M2540 5210 l0 -2670 2670 0 2670 0 0 1105 0 1105 -1565 0 -1565 0 0
1565 0 1565 -1105 0 -1105 0 0 -2670z"/>
<path d="M10 2840 l0 -2820 2825 0 2825 0 0 1180 0 1180 -1640 0 -1640 0 0
1640 0 1640 -1185 0 -1185 0 0 -2820z"/>
</g>
</svg>
