<?xml version="1.0" encoding="UTF-8"?><svg xmlns="http://www.w3.org/2000/svg" viewBox="0 0 640 480"><defs><style>.d{fill:#010121;}</style></defs><g id="a"/><g id="b"><g id="c"><path class="d" d="M0,0V480H640V0H0ZM357.14,410.25c-8.81,8.8-19.69,13.21-32.65,13.21s-23.43-4.41-32.41-13.21c-8.97-8.8-13.46-19.69-13.46-32.66s4.49-23.35,13.46-32.16c8.97-8.8,19.77-13.21,32.41-13.21s23.84,4.41,32.65,13.21c8.8,8.81,13.21,19.53,13.21,32.16s-4.41,23.85-13.21,32.66Zm89.49-217.36c-8.65,13.13-19.03,24.1-31.16,32.9-12.14,8.81-27.67,18.53-46.62,29.16-20.28,11.97-34.98,21.77-44.12,29.41-9.15,7.65-13.55,16.62-13.21,26.92h-18.45c-4.98-7.64-7.48-15.45-7.48-23.43,0-11.3,3.82-22.68,11.47-34.15,7.64-11.47,19.11-25.84,34.4-43.12,18.61-20.27,30.74-36.06,36.39-47.36,7.98-13.96,11.97-27.92,11.97-41.88s-4.16-24.18-12.46-32.65c-8.31-8.48-21.11-12.72-38.39-12.72-15.95,0-29.83,4.32-41.63,12.96-11.8,8.65-20.69,20.11-26.67,34.4-5.98,14.29-8.97,29.58-8.97,45.87,0,7.65,.75,14.79,2.24,21.43,1.49,6.65,3.74,14.29,6.73,22.93l-14.95,5.48c-2.33-6.98-5.82-12.62-10.47-16.95-4.66-4.32-11.3-9.47-19.94-15.45-11.64-7.31-20.36-14.62-26.17-21.94-5.82-7.31-8.73-17.95-8.73-31.91,0-15.28,6.64-28.74,19.94-40.38,13.29-11.63,30.74-20.52,52.35-26.67,21.6-6.15,44.2-9.22,67.8-9.22s47.03,3.32,68.3,9.97c21.27,6.65,38.39,16.7,51.35,30.16,12.96,13.46,19.44,30.16,19.44,50.1,0,17.62-4.32,32.99-12.96,46.12Z"/></g></g></svg>