<?xml version="1.0" encoding="UTF-8"?><svg xmlns="http://www.w3.org/2000/svg" viewBox="0 0 512 512"><defs><style>.d{fill:#f6eedc;}.e{fill:#010121;}</style></defs><g id="a"/><g id="b"><g id="c"><g><rect class="d" width="512" height="512"/><g><path class="e" d="M97.56,312.34c-8.14,0-15.31-1.68-21.51-5.04-6.2-3.36-11.04-7.99-14.52-13.88-3.48-5.89-5.22-12.7-5.22-20.41s1.74-14.45,5.22-20.34c3.48-5.89,8.32-10.48,14.52-13.77,6.2-3.29,13.37-4.93,21.51-4.93s15.31,1.65,21.51,4.93c6.2,3.29,11.04,7.88,14.52,13.77,3.48,5.89,5.22,12.67,5.22,20.34s-1.74,14.52-5.22,20.41c-3.48,5.89-8.32,10.52-14.52,13.88-6.2,3.36-13.37,5.04-21.51,5.04Zm0-17.47c3.83,0,7.17-.9,10.01-2.7,2.84-1.8,5.04-4.34,6.6-7.63,1.56-3.29,2.34-7.13,2.34-11.54s-.78-8.22-2.34-11.47c-1.56-3.24-3.76-5.74-6.6-7.49-2.84-1.75-6.18-2.63-10.01-2.63s-7.11,.88-9.98,2.63c-2.86,1.75-5.08,4.25-6.64,7.49-1.56,3.24-2.34,7.06-2.34,11.47s.78,8.25,2.34,11.54c1.56,3.29,3.77,5.83,6.64,7.63,2.86,1.8,6.19,2.7,9.98,2.7Z"/><path class="e" d="M188.94,312.27c-2.89,0-5.86-.25-8.91-.75-3.05-.5-5.89-1.49-8.52-2.98-2.63-1.49-4.75-3.68-6.35-6.57-1.61-2.89-2.41-6.7-2.41-11.43v-38.2h-17.4v-17.04h4.9c2.84,0,5.1-.12,6.78-.35,1.68-.24,2.93-.84,3.76-1.81,.83-.97,1.36-2.5,1.6-4.58,.24-2.08,.35-4.95,.35-8.59v-9.51h22.08v24.85h21.94v17.04h-21.94v31.95c0,3.27,.39,5.92,1.17,7.95,.78,2.04,2.73,3.05,5.86,3.05,1.56,0,3.04-.14,4.44-.43,1.4-.28,2.45-.57,3.16-.85v16.54c-.99,.43-2.39,.82-4.19,1.17-1.8,.36-3.91,.53-6.32,.53Z"/><path class="e" d="M220.04,310.71v-110.97h22.01v110.97h-22.01Zm53.11,0v-39.9c0-5.77-1.04-10.24-3.12-13.38-2.08-3.15-5.89-4.72-11.43-4.72-3.6,0-6.63,.72-9.09,2.17-2.46,1.44-4.32,3.47-5.57,6.07-1.25,2.6-1.88,5.66-1.88,9.16l-6.39-4.4c0-6.29,1.35-11.82,4.05-16.58,2.7-4.76,6.43-8.48,11.18-11.18,4.76-2.7,10.26-4.05,16.51-4.05,9.23,0,16.16,2.71,20.8,8.13,4.64,5.42,6.96,12.96,6.96,22.61v46.08h-22.01Z"/><path class="e" d="M320.08,279.61v-14.55h49.98l-2.13,3.69v-2.13c0-2.7-.64-5.29-1.92-7.78-1.28-2.48-3.25-4.52-5.93-6.11-2.67-1.58-6.1-2.38-10.26-2.38s-7.75,.89-10.76,2.66-5.3,4.32-6.89,7.63c-1.59,3.31-2.38,7.31-2.38,12s.77,8.96,2.31,12.39c1.54,3.43,3.83,6.07,6.89,7.92,3.05,1.85,6.85,2.77,11.4,2.77,2.93,0,5.47-.27,7.6-.82,2.13-.54,3.87-1.24,5.22-2.09,1.35-.85,2.38-1.8,3.09-2.84,.71-1.04,1.14-2.06,1.28-3.05h21.73c-.28,3.17-1.37,6.28-3.27,9.34-1.89,3.05-4.52,5.8-7.88,8.24-3.36,2.44-7.44,4.37-12.25,5.79-4.8,1.42-10.28,2.13-16.44,2.13-8.33,0-15.6-1.67-21.8-5.01-6.2-3.34-11-7.95-14.41-13.84-3.41-5.89-5.11-12.7-5.11-20.41s1.74-14.66,5.22-20.55c3.48-5.89,8.33-10.48,14.56-13.77,6.22-3.29,13.43-4.93,21.62-4.93s15.62,1.67,21.73,5.01c6.11,3.34,10.81,8,14.13,13.99,3.31,5.99,4.97,12.96,4.97,20.91,0,1.18-.02,2.32-.07,3.41-.05,1.09-.12,1.89-.21,2.41h-70.01Z"/><path class="e" d="M404.07,310.71v-75.4h22.08v25.99l-4.54-2.84c.52-3.55,1.47-6.82,2.84-9.8,1.37-2.98,3.15-5.57,5.33-7.77,2.18-2.2,4.77-3.92,7.77-5.15,3.01-1.23,6.45-1.85,10.33-1.85,3.03,0,5.41,.23,7.13,.67,1.73,.45,2.8,.79,3.23,1.03l-3.62,19.74c-.43-.24-1.37-.61-2.84-1.14-1.47-.52-3.36-.78-5.68-.78-3.79,0-6.96,.64-9.51,1.92-2.56,1.28-4.6,2.97-6.14,5.08-1.54,2.11-2.64,4.44-3.3,6.99-.66,2.56-.99,5.14-.99,7.74v35.57h-22.08Z"/></g></g></g></g></svg>