<svg xmlns="http://www.w3.org/2000/svg" viewBox="0 0 54.13 41.14"><g id="Layer_2" data-name="Layer 2"><g id="Layer_1-2" data-name="Layer 1"><path d="M41.56,0A12.59,12.59,0,0,0,29.12,10.82a5,5,0,0,0-4.12,0,12.56,12.56,0,1,0,.11,2.25,3.07,3.07,0,0,1,3.9,0A12.56,12.56,0,1,0,41.56,0Zm-34,13.33a1,1,0,0,1,0-1.41l3.75-3.75a1,1,0,0,1,1.42,0,1,1,0,0,1,0,1.41L9,13.33A1,1,0,0,1,7.54,13.33Zm7.71,1.95-3.6,3.62a1,1,0,0,1-.71.29,1,1,0,0,1-.71-1.71l3.61-3.61a1,1,0,0,1,.71-.29,1,1,0,0,1,.7.29A1,1,0,0,1,15.25,15.28Zm3-3a1.12,1.12,0,0,1-.85.44A1,1,0,0,1,16.71,11l.14-.15a1,1,0,0,1,.71-.29,1,1,0,0,1,.71.29A1,1,0,0,1,18.27,12.27ZM41.15,18l-.88.89a1,1,0,0,1-.71.29,1,1,0,0,1-.71-1.71l.89-.88a1,1,0,0,1,.7-.29,1,1,0,0,1,.71.29A1,1,0,0,1,41.15,18Zm.18-8.43-3.75,3.75a1,1,0,0,1-.7.29,1,1,0,0,1-.71-1.7l3.75-3.75a1,1,0,0,1,1.41,0A1,1,0,0,1,41.33,9.58Zm5.57,2.69-3.07,3.07a1,1,0,0,1-.71.29,1,1,0,0,1-.71-1.71l3.07-3.07a1,1,0,0,1,.71-.29,1,1,0,0,1,.71.29A1,1,0,0,1,46.9,12.27Z"/><path d="M31.26,25.46A11.23,11.23,0,0,0,27,26.3c-8.13-3.15-10.8,3.48-15.13,4.38a3.41,3.41,0,0,1-1.42,0,2.76,2.76,0,0,0-3,3.81C10.64,41.91,19.89,42.9,27,38.56c7.13,4.35,16.36,3.34,19.59-4.09a2.76,2.76,0,0,0-3-3.81c-3.35.67-5.95-3.55-10-4.84A7.89,7.89,0,0,0,31.26,25.46Z"/></g></g></svg>