<?xml version="1.0" standalone="no"?>
<!DOCTYPE svg PUBLIC "-//W3C//DTD SVG 20010904//EN"
 "http://www.w3.org/TR/2001/REC-SVG-20010904/DTD/svg10.dtd">
<svg version="1.0" xmlns="http://www.w3.org/2000/svg"
 width="250.000000pt" height="250.000000pt" viewBox="0 0 250.000000 250.000000"
 preserveAspectRatio="xMidYMid meet">
<metadata>
Created by potrace 1.14, written by Peter Selinger 2001-2017
</metadata>
<g transform="translate(0.000000,250.000000) scale(0.100000,-0.100000)"
fill="#000000" stroke="none">
<path d="M568 2105 c-2 -2 -19 -7 -37 -10 -19 -3 -57 -15 -85 -27 -192 -81
-315 -258 -321 -463 -5 -156 43 -281 148 -387 306 -310 826 -137 892 297 8 51
23 65 71 71 67 8 85 -9 105 -104 35 -162 137 -296 280 -366 210 -103 442 -64
606 102 201 203 201 526 -2 738 -44 45 -163 117 -215 129 -8 2 -35 8 -59 13
-111 26 -273 -5 -379 -72 -103 -65 -195 -192 -226 -312 -11 -44 -15 -49 -37
-45 -39 7 -92 6 -120 -2 -25 -6 -27 -4 -33 34 -8 48 -48 138 -84 189 -63 87
-169 163 -272 195 -49 15 -222 30 -232 20z m73 -335 c10 -6 19 -20 19 -31 0
-28 -176 -203 -196 -195 -9 3 -20 6 -25 6 -5 0 -9 12 -9 27 0 20 21 47 90 115
50 48 93 88 96 88 3 0 14 -5 25 -10z m1197 -6 c12 -8 22 -20 22 -26 0 -15
-170 -187 -192 -194 -23 -7 -48 12 -48 36 0 16 174 200 189 200 4 0 17 -7 29
-16z m-950 -141 c-4 -34 -32 -52 -55 -37 -27 17 -28 50 -2 68 31 21 61 4 57
-31z m1202 -2 c0 -13 -153 -161 -166 -161 -27 0 -44 13 -44 34 0 22 129 158
160 169 14 5 50 -26 50 -42z m-1332 -93 c23 -23 11 -43 -75 -130 -87 -87 -108
-99 -131 -76 -24 24 -11 47 75 132 85 85 108 97 131 74z m1085 -154 c-10 -26
-53 -64 -71 -64 -22 0 -42 19 -42 40 0 17 45 64 70 73 19 7 51 -29 43 -49z"/>
<path d="M997 1040 c-54 -14 -121 -50 -212 -116 -108 -78 -154 -97 -230 -95
-53 1 -65 -2 -93 -26 -22 -19 -35 -40 -39 -66 -12 -79 97 -231 207 -287 156
-79 378 -74 552 14 l63 32 70 -33 c242 -113 496 -88 650 63 58 57 116 162 109
197 -15 79 -53 107 -147 107 -75 0 -107 15 -237 108 -145 103 -245 128 -377
94 -62 -16 -76 -16 -109 -5 -51 18 -160 24 -207 13z"/>
</g>
</svg>
